<svg version="1.2" xmlns="http://www.w3.org/2000/svg" viewBox="0 0 1471 1926" width="1471" height="1926">
	<style>
		.s0 { fill: none;stroke: #e5e7eb;stroke-miterlimit:10;stroke-width: 126.2 } 
		.s1 { fill: #e5e7eb } 
	</style>
	<path fill-rule="evenodd" class="s0" d="m962.76 1862.74c-496.58 0-899.09-402.8-899.09-899.68 0-496.87 402.51-899.67 899.09-899.67"/>
	<path fill-rule="evenodd" class="s0" d="m499.69 1519.09c-306.45-257.17-346.45-714.33-89.29-1020.79 256.89-306.75 713.76-346.75 1019.93-89.29"/>
	<path fill-rule="evenodd" class="s0" d="m703.9 1449.24c-268.15-141.69-370.95-474.06-229.27-742.5 141.68-268.44 473.76-370.97 741.91-229.29"/>
	<path fill-rule="evenodd" class="s0" d="m962.76 1337.41c-206.75 0-374.06-167.6-374.06-374.35 0-206.75 167.31-374.63 374.06-374.63"/>
	<path class="s1" d="m1078.24 858.28q-21.69-23.1-45.63-36.9-23.94-13.52-49.01-13.52-34.36 0-61.4 12.68-27.32 12.67-46.48 33.51-19.15 21.13-29.29 48.45-9.86 27.33-9.86 56.9 0 29.3 9.86 56.62 10.14 27.32 29.29 48.45 19.16 21.12 46.48 33.52 27.04 12.67 61.4 12.67 29.01 0 54.08-12.11 25.07-12.11 42.82-35.21l83.37 90.42q-18.87 19.15-43.38 32.67-24.5 13.8-49.57 22.25-24.79 8.17-47.88 11.84-22.82 3.94-39.44 3.94-56.33 0-106.19-19.16-50.13-18.87-86.47-53.51-36.62-34.65-58.02-83.66-21.41-49.01-21.41-108.73 0-60 21.41-109.01 21.4-48.73 58.02-83.65 36.34-34.65 86.47-53.52 49.86-18.88 106.19-18.88 47.89 0 96.33 18.31 48.45 18.31 84.79 58.31z"/>
</svg>