<!-- created by svgstack.com | Attribution is required. --><svg width="201" height="91" viewBox="0 0 201 91" fill="none" xmlns="http://www.w3.org/2000/svg"><g clip-path="url(#clip0_105_1277)"><path d="M137.486 88.9723L138.504 85.4526C139.717 81.2657 139.266 77.3951 137.23 74.5515C135.357 71.9321 132.236 70.3896 128.445 70.2103L56.6485 69.3018C56.4256 69.2975 56.2069 69.2408 56.0104 69.1363C55.8132 69.0318 55.6443 68.8825 55.5156 68.7004C55.3903 68.5123 55.3101 68.2974 55.2817 68.0729C55.254 67.8483 55.2789 67.6204 55.3543 67.4071C55.4775 67.0554 55.7011 66.7474 55.9972 66.5213C56.2941 66.2953 56.6498 66.1609 57.0222 66.1348L129.484 65.2164C138.08 64.822 147.386 57.8524 150.644 49.3535L154.776 38.5636C154.946 38.1074 154.985 37.613 154.889 37.1361C150.197 16.0463 131.361 0.275391 108.839 0.275391C88.0893 0.275391 70.4706 13.6584 64.1509 32.2601C59.8803 29.0571 54.5557 27.5846 49.245 28.1375C39.29 29.1254 31.2858 37.1344 30.3004 47.0836C30.0478 49.5679 30.2325 52.0773 30.8478 54.4977C14.5855 54.9714 1.54395 68.2849 1.54395 84.6505C1.54602 86.1114 1.65397 87.5702 1.86712 89.0159C1.91418 89.3494 2.07958 89.6553 2.33356 89.8775C2.58754 90.0996 2.9135 90.2228 3.25052 90.2249L135.8 90.2415C135.812 90.2422 135.825 90.2422 135.837 90.2415C136.212 90.2346 136.575 90.1079 136.872 89.8795C137.169 89.6505 137.384 89.3328 137.486 88.9723Z" fill="#F6821F"/><path d="M161.404 39.3462C160.739 39.3462 160.076 39.3629 159.416 39.3963C159.309 39.4039 159.205 39.4268 159.105 39.4643C158.932 39.5234 158.776 39.6235 158.65 39.7561C158.524 39.8887 158.432 40.0499 158.382 40.2257L155.559 49.9695C154.345 54.1568 154.796 58.0239 156.834 60.8676C158.706 63.4899 161.827 65.029 165.617 65.2085L180.923 66.1267C181.138 66.1339 181.349 66.191 181.538 66.2937C181.727 66.3965 181.89 66.5419 182.013 66.7185C182.14 66.9076 182.221 67.1239 182.249 67.3499C182.277 67.576 182.252 67.8055 182.175 68.0199C182.052 68.3709 181.828 68.6783 181.533 68.9043C181.237 69.1303 180.881 69.2652 180.51 69.2923L164.607 70.2106C155.973 70.6085 146.668 77.5746 143.413 86.0735L142.264 89.0742C142.216 89.1995 142.198 89.3344 142.213 89.468C142.227 89.6016 142.273 89.7303 142.347 89.8424C142.421 89.9545 142.52 90.0479 142.637 90.1144C142.754 90.1801 142.886 90.2182 143.02 90.2237C143.034 90.2237 143.048 90.2237 143.062 90.2237H197.783C198.101 90.2265 198.412 90.1254 198.667 89.9351C198.922 89.7448 199.108 89.477 199.196 89.1711C200.165 85.7144 200.655 82.1414 200.652 78.551C200.645 56.9003 183.076 39.3462 161.404 39.3462Z" fill="#FBAD41"/></g><defs><clipPath id="clip0_105_1277"><rect width="200" height="90.6574" fill="white" transform="translate(0.919922 0.275391)"/></clipPath></defs></svg> 