<!-- created by svgstack.com | Attribution is required. --><svg width="128" height="128" viewBox="0 0 128 128" fill="none" xmlns="http://www.w3.org/2000/svg"><path fill-rule="evenodd" clip-rule="evenodd" d="M47.5196 73.1589C50.0398 73.1589 55.0528 73.0168 61.9821 70.0922C70.0566 66.6832 86.1222 60.4955 97.7109 54.1396C105.816 49.6942 109.369 43.8148 109.369 35.8971C109.369 24.9083 100.681 16 89.9632 16H45.0589C29.6646 16 17.1851 28.7954 17.1851 44.5795C17.1851 60.3635 28.8696 73.1589 47.5196 73.1589Z" fill="#355146"/><path fill-rule="evenodd" clip-rule="evenodd" d="M55.1164 92.8516C55.1164 85.1145 59.6593 78.1387 66.629 75.1727L80.7703 69.1555C95.0743 63.0685 110.818 73.8465 110.818 89.7254C110.818 102.028 101.09 112 89.0906 111.997L73.7801 111.993C63.4716 111.99 55.1164 103.421 55.1164 92.8516Z" fill="#D18EE2"/><path d="M33.2536 76.9187C24.3794 76.9187 17.1852 84.2949 17.1852 93.3937V95.5278C17.1852 104.627 24.3791 112.002 33.2533 112.002C42.1275 112.002 49.3218 104.627 49.3218 95.5278V93.3937C49.3218 84.2949 42.1278 76.9187 33.2536 76.9187Z" fill="#FF7759"/></svg> 