<!-- created by svgstack.com | Attribution is required. --><svg width="128" height="128" viewBox="0 0 128 128" fill="none" xmlns="http://www.w3.org/2000/svg"><g clip-path="url(#clip0_10019_799)"><path d="M125.948 90.4036H72.8252V108.001H125.948V90.4036Z" fill="#E10500"/><path d="M55.1228 90.4036H2V108.001H55.1228V90.4036Z" fill="#E10500"/><path d="M108.232 72.7952H90.5284V90.393H108.232V72.7952Z" fill="#FA500F"/><path d="M72.8197 72.7952H55.1158V90.393H72.8197V72.7952Z" fill="#FA500F"/><path d="M37.4072 72.7952H19.7034V90.393H37.4072V72.7952Z" fill="#FA500F"/><path d="M108.232 20H90.5284V37.5978H108.232V20Z" fill="#FFD800"/><path d="M108.233 37.5964H72.8252V55.1942H108.233V37.5964Z" fill="#FFAF00"/><path d="M37.4072 20H19.7034V37.5978H37.4072V20Z" fill="#FFD800"/><path d="M55.1114 37.5964H19.7034V55.1942H55.1114V37.5964Z" fill="#FFAF00"/><path d="M108.234 55.1931H19.7034V72.7907H108.234V55.1931Z" fill="#FF8205"/></g><defs><clipPath id="clip0_10019_799"><rect width="124" height="88" fill="white" transform="translate(2 20)"/></clipPath></defs></svg> 