<svg version="1.2" xmlns="http://www.w3.org/2000/svg" viewBox="0 0 1552 1378" width="1552" height="1378"><style>.a{fill:#e0ff4f}.b{fill:#052b42}</style><path class="a" d="m1206.1 0h-862.8c-189.6 0-343.3 155.5-343.3 347.4v683.2c0 191.9 153.7 347.4 343.3 347.4h862.8c189.6 0 343.3-155.5 343.3-347.4v-683.2c0-191.9-153.7-347.4-343.3-347.4z"/><path class="b" d="m622 363.7c60.9 0 103.8 33.7 130.1 93.8l160.6 371.3c40.7 93.9 117.5 83.2 117.5 83.2 0 52.9-41.5 102.4-102.5 102.4-60.9 0-103.8-33.8-130.1-93.9l-160.6-371.2c-40.6-93.8-117.4-83.3-117.4-83.3v539h-127.6v-384.4c0-146.4 126.9-154.5 127.6-154.6 0-52.9 41.6-102.3 102.4-102.3zm535.8 393.8c0 146.8-127.5 154.5-127.6 154.5v-538.9h127.6z"/></svg>